<?xml version="1.0" encoding="UTF-8"?>
<svg id="Layer_1" data-name="Layer 1" xmlns="http://www.w3.org/2000/svg" viewBox="0 0 279.82 33.01">
  <defs>
    <style>
      .cls-1 {
        fill: #333a7c;
      }
    </style>
  </defs>
  <path d="M45.43,32.48h-13.23l-7.12-8.46h-15.19v8.46H0v-16.34h27.8c3.06,0,5.45-1.39,5.45-3.58,0-2.48-2.05-3.72-5.45-3.72H0L6.45.53h20.54c7.26,0,16.43,2.29,16.43,11.42,0,4.97-3.11,9.08-8.36,10.13,1.1.81,2.29,1.96,4.49,4.2l5.88,6.21Z"/>
  <path class="cls-1" d="M62.51,32.48l5.97-8.22h8.02c1.91,0,4.16,0,5.68.1-.86-1.15-2.2-3.1-3.25-4.63l-5.73-8.46-15,21.21h-11.7L67,3.58c1.34-1.86,3.3-3.58,6.4-3.58s4.92,1.58,6.31,3.58l19.97,28.9h-37.16Z"/>
  <path d="M136.82,32.48h-30.29c-2.48,0-4.59-1.43-4.59-4.01,0-1.48.81-2.92,2.15-3.97l11.66-9.17c5.3-4.25,7.59-5.83,8.79-6.69-1.72.14-4.63.19-10.99.19h-12.8l6.31-8.31h29.47c2.49,0,4.59,1.43,4.59,4.01,0,1.43-.81,2.91-2.15,3.92l-11.8,9.36c-5.25,4.16-7.45,5.78-8.69,6.64,1.58-.1,7.69-.19,12.71-.19h11.61l-5.97,8.22Z"/>
  <path d="M167.61,32.48h-21.4V12.56h9.94v11.7h11.46c5.49,0,9.46-3.06,9.46-7.64s-4.11-7.79-9.46-7.79h-21.4l6.31-8.31h15.09c11.18,0,19.25,6.45,19.25,15.67s-8.17,16.29-19.25,16.29Z"/>
  <path d="M196.87.53l14.38,21.21L226.25.53h11.66l-20.44,28.9c-1.39,1.86-3.35,3.58-6.4,3.58s-4.92-1.58-6.31-3.58L184.73.53h12.13Z"/>
  <path class="cls-1" d="M242.65,32.48l5.97-8.22h8.02c1.91,0,4.16,0,5.68.1-.86-1.15-2.2-3.1-3.25-4.63l-5.73-8.46-15,21.21h-11.7l20.49-28.9c1.34-1.86,3.3-3.58,6.4-3.58s4.92,1.58,6.31,3.58l19.97,28.9h-37.16Z"/>
</svg>