<?xml version="1.0" encoding="UTF-8"?>
<svg id="Layer_1" data-name="Layer 1" xmlns="http://www.w3.org/2000/svg" viewBox="0 0 334.36 71.7">
  <defs>
    <style>
      .cls-1 {
        fill: #333a7c;
      }
    </style>
  </defs>
  <g>
    <path d="M54.28,38.81h-15.81l-8.5-10.1H11.82v10.1H0v-19.52h33.22c3.65,0,6.51-1.66,6.51-4.28,0-2.97-2.45-4.45-6.51-4.45H0L7.71.63h24.55c8.68,0,19.64,2.74,19.64,13.64,0,5.94-3.71,10.85-9.99,12.1,1.31.97,2.74,2.34,5.37,5.02l7.02,7.42Z"/>
    <path class="cls-1" d="M74.7,38.81l7.13-9.82h9.59c2.28,0,4.97,0,6.79.11-1.03-1.37-2.62-3.71-3.88-5.54l-6.85-10.1-17.92,25.34h-13.99L80.06,4.28c1.6-2.23,3.94-4.28,7.65-4.28s5.88,1.88,7.53,4.28l23.86,34.53h-44.41Z"/>
    <path d="M163.49,38.81h-36.19c-2.97,0-5.48-1.71-5.48-4.79,0-1.77.97-3.48,2.57-4.74l13.93-10.96c6.34-5.08,9.07-6.96,10.5-7.99-2.05.17-5.54.23-13.13.23h-15.3l7.53-9.93h35.22c2.97,0,5.48,1.71,5.48,4.79,0,1.71-.97,3.48-2.57,4.68l-14.1,11.19c-6.28,4.97-8.91,6.91-10.39,7.94,1.88-.12,9.19-.23,15.18-.23h13.87l-7.13,9.82Z"/>
    <path d="M200.28,38.81h-25.57V15.01h11.87v13.99h13.7c6.57,0,11.3-3.65,11.3-9.13s-4.91-9.3-11.3-9.3h-25.57l7.54-9.93h18.04c13.36,0,23,7.71,23,18.72s-9.76,19.47-23,19.47Z"/>
    <path d="M235.24.63l17.18,25.34L270.34.63h13.93l-24.43,34.53c-1.66,2.23-4,4.28-7.65,4.28s-5.88-1.88-7.53-4.28L220.74.63h14.5Z"/>
    <path class="cls-1" d="M289.95,38.81l7.13-9.82h9.59c2.28,0,4.97,0,6.79.11-1.03-1.37-2.62-3.71-3.88-5.54l-6.85-10.1-17.92,25.34h-13.99l24.49-34.53c1.6-2.23,3.94-4.28,7.65-4.28s5.88,1.88,7.53,4.28l23.86,34.53h-44.41Z"/>
  </g>
  <g>
    <path d="M19.71,53.83l-3.52,4.57H5.47v2.29h13.24l-3.31,4.28H5.47v6.44H0v-17.58h19.71Z"/>
    <path d="M40.22,71.41h-5.44v-17.58h5.44v17.58Z"/>
    <path d="M67.61,60.42h11.25v10.98h-12.06c-6.1,0-10.59-3.86-10.59-8.96s4.49-8.62,10.59-8.62h12.59l-3.52,4.57h-9.07c-2.94,0-5.18,1.79-5.18,4.28s2.16,4.2,5.18,4.2h6.65v-2.55h-9.09l3.26-3.92Z"/>
    <path d="M115.82,53.83l-3.52,4.57h-6.28v13.01h-5.44v-13.01h-8.25l3.52-4.57h19.97Z"/>
    <path d="M151.97,71.41h-5.41v-6.78h-10.46v6.78h-5.47v-17.58h5.47v6.23h10.46v-6.23h5.41v17.58Z"/>
    <path d="M207.97,60.84c4.28,0,6.6,1.6,6.6,4.81,0,3.6-2.18,5.76-7.54,5.76h-16.37l3.49-4.52h13.3c1.29,0,1.87-.37,1.87-1.29s-.58-1.26-1.87-1.26h-9.56c-4.52,0-6.6-2.02-6.6-5.04,0-3.31,2.21-5.46,7.54-5.46h15.27l-3.49,4.57h-12.19c-1.26,0-1.87.31-1.87,1.21s.6,1.23,1.87,1.23h9.56Z"/>
    <path d="M251.48,71.41h-5.41v-6.78h-10.46v6.78h-5.47v-17.58h5.47v6.23h10.46v-6.23h5.41v17.58Z"/>
    <path d="M293.12,62.61c0,6.28-4.31,9.09-12.85,9.09s-12.85-2.81-12.85-9.09,4.28-9.07,12.85-9.07,12.85,2.79,12.85,9.07ZM287.71,62.61c0-3.78-1.97-4.49-7.44-4.49s-7.44.71-7.44,4.49,1.97,4.52,7.44,4.52,7.44-.74,7.44-4.52Z"/>
    <path d="M323.6,66.91h-9.2v4.49h-5.41v-8.99h15.13c1.68,0,2.65-.82,2.65-2.02s-.97-2-2.65-2h-15.13l3.6-4.57h11.04c5.44,0,8.62,2.68,8.62,6.59s-3.18,6.49-8.64,6.49Z"/>
  </g>
</svg>