<?xml version="1.0" encoding="UTF-8"?>
<svg id="Layer_1" data-name="Layer 1" xmlns="http://www.w3.org/2000/svg" viewBox="0 0 327.07 70.6">
  <defs>
    <style>
      .cls-1 {
        fill: #fff;
      }

      .cls-2 {
        fill: #333a7c;
      }
    </style>
  </defs>
  <g>
    <path class="cls-1" d="M53.1,37.97h-15.47l-8.32-9.88H11.56v9.88H0v-19.1h32.5c3.57,0,6.37-1.62,6.37-4.19,0-2.9-2.4-4.35-6.37-4.35H0L7.54.61h24.01c8.49,0,19.21,2.68,19.21,13.34,0,5.81-3.63,10.61-9.77,11.84,1.28.95,2.68,2.29,5.25,4.91l6.87,7.26Z"/>
    <path class="cls-2" d="M73.07,37.97l6.98-9.6h9.38c2.23,0,4.86,0,6.64.11-1-1.34-2.57-3.63-3.8-5.41l-6.7-9.88-17.53,24.79h-13.68L78.31,4.19c1.56-2.18,3.85-4.19,7.48-4.19s5.75,1.84,7.37,4.19l23.34,33.78h-43.44Z"/>
    <path class="cls-1" d="M159.93,37.97h-35.4c-2.9,0-5.36-1.68-5.36-4.69,0-1.73.95-3.41,2.51-4.64l13.62-10.72c6.2-4.97,8.88-6.81,10.27-7.82-2.01.17-5.41.23-12.84.23h-14.97l7.37-9.72h34.45c2.91,0,5.36,1.68,5.36,4.69,0,1.68-.95,3.41-2.51,4.58l-13.79,10.94c-6.14,4.86-8.71,6.76-10.16,7.76,1.84-.11,8.99-.23,14.85-.23h13.57l-6.98,9.6Z"/>
    <path class="cls-1" d="M195.91,37.97h-25.02V14.68h11.61v13.68h13.4c6.42,0,11.06-3.57,11.06-8.93s-4.8-9.1-11.06-9.1h-25.02l7.37-9.72h17.64c13.07,0,22.5,7.54,22.5,18.31s-9.55,19.04-22.5,19.04Z"/>
    <path class="cls-1" d="M230.11.61l16.81,24.79L264.45.61h13.62l-23.9,33.78c-1.62,2.18-3.91,4.19-7.48,4.19s-5.75-1.84-7.37-4.19L215.93.61h14.18Z"/>
    <path class="cls-2" d="M283.63,37.97l6.98-9.6h9.38c2.23,0,4.86,0,6.64.11-1-1.34-2.57-3.63-3.8-5.41l-6.7-9.88-17.53,24.79h-13.68l23.95-33.78c1.56-2.18,3.85-4.19,7.48-4.19s5.75,1.84,7.37,4.19l23.34,33.78h-43.44Z"/>
  </g>
  <g>
    <path class="cls-1" d="M19.5,53.02l-3.46,4.5H5.48v2.25h13.03l-3.26,4.22H5.48v6.34H.11v-17.3h19.39Z"/>
    <path class="cls-1" d="M39.69,70.32h-5.35v-17.3h5.35v17.3Z"/>
    <path class="cls-1" d="M66.64,59.51h11.07v10.81h-11.87c-6,0-10.42-3.8-10.42-8.82s4.42-8.48,10.42-8.48h12.39l-3.47,4.5h-8.92c-2.9,0-5.09,1.76-5.09,4.22s2.12,4.14,5.09,4.14h6.54v-2.51h-8.95l3.21-3.85Z"/>
    <path class="cls-1" d="M114.09,53.02l-3.47,4.5h-6.18v12.8h-5.35v-12.8h-8.12l3.46-4.5h19.65Z"/>
    <path class="cls-1" d="M149.66,70.32h-5.33v-6.67h-10.29v6.67h-5.38v-17.3h5.38v6.13h10.29v-6.13h5.33v17.3Z"/>
    <path class="cls-1" d="M204.78,59.92c4.22,0,6.49,1.58,6.49,4.73,0,3.54-2.15,5.66-7.42,5.66h-16.11l3.44-4.45h13.08c1.27,0,1.84-.36,1.84-1.27s-.57-1.24-1.84-1.24h-9.41c-4.45,0-6.49-1.99-6.49-4.96,0-3.26,2.17-5.38,7.42-5.38h15.02l-3.44,4.5h-12c-1.24,0-1.84.31-1.84,1.19s.59,1.21,1.84,1.21h9.41Z"/>
    <path class="cls-1" d="M247.59,70.32h-5.33v-6.67h-10.29v6.67h-5.38v-17.3h5.38v6.13h10.29v-6.13h5.33v17.3Z"/>
    <path class="cls-1" d="M288.57,61.66c0,6.18-4.24,8.95-12.64,8.95s-12.64-2.77-12.64-8.95,4.21-8.92,12.64-8.92,12.64,2.74,12.64,8.92ZM283.25,61.66c0-3.72-1.94-4.42-7.32-4.42s-7.32.7-7.32,4.42,1.94,4.45,7.32,4.45,7.32-.72,7.32-4.45Z"/>
    <path class="cls-1" d="M318.57,65.9h-9.05v4.42h-5.33v-8.84h14.89c1.65,0,2.61-.8,2.61-1.99s-.96-1.96-2.61-1.96h-14.89l3.54-4.5h10.86c5.35,0,8.48,2.64,8.48,6.49s-3.13,6.39-8.51,6.39Z"/>
  </g>
</svg>