<?xml version="1.0" encoding="UTF-8"?>
<svg id="Layer_1" data-name="Layer 1" xmlns="http://www.w3.org/2000/svg" viewBox="0 0 327.07 38.58">
  <defs>
    <style>
      .cls-1 {
        fill: #fff;
      }

      .cls-2 {
        fill: #333a7c;
      }
    </style>
  </defs>
  <path class="cls-1" d="M53.1,37.97h-15.47l-8.32-9.88H11.56v9.88H0v-19.1h32.5c3.57,0,6.37-1.62,6.37-4.19,0-2.9-2.4-4.35-6.37-4.35H0L7.54.61h24.01c8.49,0,19.21,2.68,19.21,13.34,0,5.81-3.63,10.61-9.77,11.84,1.28.95,2.68,2.29,5.25,4.91l6.87,7.26Z"/>
  <path class="cls-2" d="M73.07,37.97l6.98-9.6h9.38c2.23,0,4.86,0,6.64.11-1-1.34-2.57-3.63-3.8-5.41l-6.7-9.88-17.53,24.79h-13.68L78.31,4.19c1.56-2.18,3.85-4.19,7.48-4.19s5.75,1.84,7.37,4.19l23.34,33.78h-43.44Z"/>
  <path class="cls-1" d="M159.93,37.97h-35.4c-2.9,0-5.36-1.68-5.36-4.69,0-1.73.95-3.41,2.51-4.64l13.62-10.72c6.2-4.97,8.88-6.81,10.27-7.82-2.01.17-5.41.23-12.84.23h-14.97l7.37-9.72h34.45c2.91,0,5.36,1.68,5.36,4.69,0,1.68-.95,3.41-2.51,4.58l-13.79,10.94c-6.14,4.86-8.71,6.76-10.16,7.76,1.84-.11,8.99-.23,14.85-.23h13.57l-6.98,9.6Z"/>
  <path class="cls-1" d="M195.91,37.97h-25.02V14.68h11.61v13.68h13.4c6.42,0,11.06-3.57,11.06-8.93s-4.8-9.1-11.06-9.1h-25.02l7.37-9.72h17.64c13.07,0,22.5,7.54,22.5,18.31s-9.55,19.04-22.5,19.04Z"/>
  <path class="cls-1" d="M230.11.61l16.81,24.79L264.45.61h13.62l-23.9,33.78c-1.62,2.18-3.91,4.19-7.48,4.19s-5.75-1.84-7.37-4.19L215.93.61h14.18Z"/>
  <path class="cls-2" d="M283.63,37.97l6.98-9.6h9.38c2.23,0,4.86,0,6.64.11-1-1.34-2.57-3.63-3.8-5.41l-6.7-9.88-17.53,24.79h-13.68l23.95-33.78c1.56-2.18,3.85-4.19,7.48-4.19s5.75,1.84,7.37,4.19l23.34,33.78h-43.44Z"/>
</svg>